#!OML:ASF F:\twosubjects\two\wednesday\Session 1\rory1.ASF
:FULLY-SPECIFIED
:DEGREES
213
root 1.49005 18.5808 19.8539 0.242363 1.16579 -3.15183
lowerback 3.27312 0.895749 1.07384
upperback 1.69628 1.23239 1.89535
thorax -0.114577 0.615431 1.2992
lowerneck -13.4 -3.44245 -2.73786
upperneck 17.0797 -4.88301 3.85872
head 7.63339 -2.14319 1.20321
rclavicle 1.1281e-014 -1.0138e-014
rhumerus -34.6451 -22.6371 -69.882
rradius 24.6812
rwrist 10.0396
rhand -16.1322 31.2868
rfingers 7.12502
rthumb 10.0726 1.54787
lclavicle 1.1281e-014 -1.0138e-014
lhumerus -43.8197 -32.7548 75.9376
lradius 87.8906
lwrist 6.28983
lhand -28.7249 6.87366
lfingers 7.12502
lthumb -2.08603 36.8432
rfemur -12.2342 9.44092 29.1874
rtibia 28.246
rfoot -11.7173 -5.00422
rtoes 10.9256
lfemur -21.4191 2.54754 -12.4603
ltibia 69.4855
lfoot 2.20733 0.394828
ltoes -21.5696
214
root 1.49537 18.5779 20.0217 0.413759 0.81678 -2.60969
lowerback 3.04736 0.875104 0.582683
upperback 1.53299 1.18888 1.61066
thorax -0.159254 0.592164 1.2859
lowerneck -13.4773 -3.35457 -2.48914
upperneck 17.5753 -4.80387 3.70197
head 7.79746 -2.09788 1.1171
rclavicle -1.0958e-014 -8.54774e-015
rhumerus -33.688 -20.7657 -71.371
rradius 25.5637
rwrist 8.70855
rhand -16.053 31.3994
rfingers 7.12502
rthumb 10.149 1.6642
lclavicle -1.0958e-014 -8.54774e-015
lhumerus -44.2138 -32.8548 75.7746
lradius 88.2496
lwrist 6.56209
lhand -28.6731 6.70368
lfingers 7.12502
lthumb -2.03601 36.6737
rfemur -11.761 9.1333 28.6467
rtibia 28.2156
rfoot -12.2074 -4.56648
rtoes 9.53641
lfemur -22.5401 2.7212 -13.2512
ltibia 69.137
lfoot 0.680291 0.675924
ltoes -20.7386
215
root 1.50951 18.5686 20.1734 0.586404 0.786432 -1.64517
lowerback 2.99008 0.8145 -0.144423
upperback 1.40096 1.08769 1.17109
thorax -0.265726 0.540143 1.24575
lowerneck -13.0177 -3.21184 -2.53298
upperneck 17.4851 -4.64706 3.92561
head 7.68728 -2.01228 1.22177
rclavicle -3.35449e-016 3.97569e-016
rhumerus -32.7725 -19.3267 -72.6097
rradius 26.5184
rwrist 7.80237
rhand -15.8153 31.4583
rfingers 7.12502
rthumb 10.3783 1.73443
lclavicle -3.35449e-016 3.97569e-016
lhumerus -44.0938 -33.3537 75.4036
lradius 88.3312
lwrist 6.91147
lhand -28.6107 6.72488
lfingers 7.12502
lthumb -1.97571 36.6955
rfemur -11.4094 8.63833 27.5455
rtibia 28.2728
rfoot -12.9217 -4.08048
rtoes 9.71316
lfemur -23.6297 2.40987 -14.6114
ltibia 68.3231
lfoot -0.160551 1.26305
ltoes -19.6135
216
root 1.518 18.5739 20.3597 0.334403 0.637504 -1.09071
lowerback 2.38936 0.810855 -0.570157
upperback 1.93853 1.06849 0.990014
thorax 0.617157 0.522662 1.31384
lowerneck -12.6936 -3.01668 -2.79192
upperneck 16.8612 -4.35381 4.17787
head 7.42628 -1.877 1.38308
rclavicle -2.82026e-015 -1.0138e-014
rhumerus -31.1402 -17.944 -73.8263
rradius 27.5279
rwrist 6.59063
rhand -15.8005 31.6872
rfingers 7.12502
rthumb 10.3926 1.96401
lclavicle -2.82026e-015 -1.0138e-014
lhumerus -43.0083 -33.4307 74.8141
lradius 88.29
lwrist 7.01671
lhand -27.9116 7.07172
lfingers 7.12502
lthumb -1.30054 37.0475
rfemur -10.4705 8.09601 27.0044
rtibia 28.4454
rfoot -13.7271 -3.82279
rtoes 6.9757
lfemur -23.9843 2.16595 -15.3855
ltibia 67.2511
lfoot -1.29551 1.75179
ltoes -17.5456
217
root 1.54514 18.6043 20.5985 -0.282209 0.225562 1.0752
lowerback 2.6645 1.01714 -2.04685
upperback 1.84467 1.31374 0.0526969
thorax 0.35026 0.639157 1.17002
lowerneck -12.3119 -3.03204 -2.65275
upperneck 17.2366 -4.42079 4.1507
head 7.48016 -1.90388 1.34903
rclavicle 2.15029e-014 -1.27719e-014
rhumerus -31.1812 -16.6871 -74.7244
rradius 28.8702
rwrist 5.01307
rhand -15.8078 31.8418
rfingers 7.12502
rthumb 10.3856 2.11823
lclavicle 2.15029e-014 -1.27719e-014
lhumerus -43.5569 -34.2064 74.8782
lradius 88.5233
lwrist 7.18397
lhand -28.0604 7.43557
lfingers 7.12502
lthumb -1.44429 37.4104
rfemur -8.81848 6.47327 24.4991
rtibia 28.505
rfoot -14.9234 -2.41771
rtoes 5.13754
lfemur -23.2537 1.89857 -18.2029
ltibia 65.8217
lfoot -3.12118 2.34835
ltoes -18.4647
218
root 1.56367 18.6071 20.7459 -0.276323 -0.0628687 2.16901
lowerback 2.95663 1.12081 -2.80103
upperback 1.72151 1.42385 -0.369525
thorax 0.0500734 0.694775 1.1493
lowerneck -12.9145 -3.22175 -2.73154
upperneck 17.9386 -4.62749 3.8698
head 7.82103 -2.01818 1.239
rclavicle -2.2326e-014 1.54058e-014
rhumerus -30.4337 -15.7272 -75.386
rradius 29.9323
rwrist 3.71151
rhand -15.27 32.394
rfingers 7.12502
rthumb 10.9044 2.69718
lclavicle -2.2326e-014 1.54058e-014
lhumerus -43.5235 -34.5878 74.7617
lradius 88.6089
lwrist 7.30444
lhand -28.72 7.27919
lfingers 7.12502
lthumb -2.08129 37.2488
rfemur -8.26019 5.32388 23.1206
rtibia 28.4518
rfoot -15.5949 -1.16179
rtoes 7.2698
lfemur -24.0394 1.68944 -19.6671
ltibia 64.6673
lfoot -4.07293 2.72946
ltoes -20.4571
219
root 1.53533 18.5893 20.8728 -0.0519952 -0.737919 0.892063
lowerback 3.03031 1.30875 -1.80635
upperback 1.65601 1.69723 0.0229317
thorax -0.0535533 0.837772 0.983548
lowerneck -13.3176 -3.30199 -2.86039
upperneck 18.2822 -4.67133 3.65448
head 8.00644 -2.05984 1.17794
rclavicle 1.79062e-014 -4.72114e-015
rhumerus -29.4057 -14.7817 -76.0343
rradius 31.0038
rwrist 2.59218
rhand -14.6076 32.6731
rfingers 7.12502
rthumb 11.5432 3.01098
lclavicle 1.79062e-014 -4.72114e-015
lhumerus -42.9795 -34.8846 74.491
lradius 88.418
lwrist 7.22562
lhand -28.1312 6.96264
lfingers 7.12502
lthumb -1.51259 36.937
rfemur -8.0648 6.84661 24.9053
rtibia 28.3599
rfoot -15.6701 -2.16462
rtoes 8.60293
lfemur -25.5137 2.30469 -17.9462
ltibia 63.7846
lfoot -4.65102 2.40008
ltoes -20.1187
220
root 1.51699 18.5645 20.9769 0.33001 -1.32223 -0.710898
lowerback 3.41452 1.43423 -0.348692
upperback 1.3733 1.90272 0.412472
thorax -0.530697 0.949203 0.544988
lowerneck -13.1795 -3.21187 -2.89647
upperneck 18.2323 -4.55273 3.71477
head 7.96315 -2.00257 1.21904
rclavicle 1.19939e-014 1.44119e-015
rhumerus -28.6572 -13.2806 -76.8892
rradius 32.295
rwrist 1.48623
rhand -14.8751 32.4324
rfingers 7.12502
rthumb 11.2852 2.75597
lclavicle 1.19939e-014 1.44119e-015
lhumerus -42.8431 -35.0215 74.3094
lradius 88.5554
lwrist 7.39314
lhand -27.2495 7.21464
lfingers 7.12502
lthumb -0.661063 37.1934
rfemur -8.05596 8.16128 26.9122
rtibia 28.1075
rfoot -15.5762 -2.92001
rtoes 8.91066
lfemur -27.14 2.87397 -15.9833
ltibia 62.9764
lfoot -5.53769 2.13876
ltoes -18.8141
221
root 1.51036 18.5507 21.0877 0.739494 -1.65945 -1.92171
lowerback 3.60465 1.45861 0.76006
upperback 1.16777 1.97745 0.730919
thorax -0.822153 0.987492 0.239029
lowerneck -13.0907 -3.14179 -2.99709
upperneck 18.1082 -4.4429 3.76927
head 7.90568 -1.95446 1.26709
rclavicle 2.05455e-014 -3.23025e-015
rhumerus -27.7712 -11.4462 -77.7046
rradius 33.3001
rwrist 0.752283
rhand -15.9525 32.3836
rfingers 7.12502
rthumb 10.246 2.65314
lclavicle 2.05455e-014 -3.23025e-015
lhumerus -43.0672 -34.7719 74.1492
lradius 89.0515
lwrist 7.63679
lhand -26.7962 7.40372
lfingers 7.12502
lthumb -0.223248 37.3833
rfemur -7.9164 8.66949 28.3507
rtibia 27.6132
rfoot -15.4334 -3.35635
rtoes 5.57304
lfemur -28.6518 3.05993 -14.5897
ltibia 61.9358
lfoot -6.49534 2.13337
ltoes -19.2653
222
root 1.51478 18.5549 21.2335 0.952278 -1.89223 -2.7509
lowerback 3.38403 1.42391 1.62763
upperback 1.25797 1.95708 0.964328
thorax -0.585332 0.979137 0.00163539
lowerneck -13.3092 -3.04285 -2.74691
upperneck 18.1289 -4.23496 3.17512
head 7.92486 -1.89335 1.04931
rclavicle 1.98101e-014 -7.77745e-015
rhumerus -26.6143 -9.99585 -78.3538
rradius 34.1987
rwrist 0.457413
rhand -16.7685 32.5292
rfingers 7.12502
rthumb 9.45874 2.76149
lclavicle 1.98101e-014 -7.77745e-015
lhumerus -42.8566 -34.6102 73.833
lradius 89.194
lwrist 7.65105
lhand -26.904 7.404
lfingers 7.12502
lthumb -0.327382 37.3835
rfemur -7.36454 8.48158 29.3003
rtibia 27.1101
rfoot -15.2397 -3.4311
rtoes 1.5706
lfemur -29.645 2.98291 -13.6663
ltibia 60.5626
lfoot -7.38725 2.38159
ltoes -20.3621
223
root 1.53107 18.5785 21.4174 1.04529 -2.073 -2.78048
lowerback 2.81876 1.40571 1.94815
upperback 1.46794 1.92307 0.918719
thorax -0.0422692 0.968153 -0.203455
lowerneck -13.4066 -2.96558 -2.66928
upperneck 18.0133 -4.05389 2.75544
head 7.88722 -1.84258 0.916728
rclavicle 1.95057e-015 9.59136e-015
rhumerus -25.6928 -9.10801 -78.813
rradius 35.5807
rwrist 0.211034
rhand -16.9286 32.5169
rfingers 7.12502
rthumb 9.30427 2.74223
lclavicle 1.95057e-015 9.59136e-015
lhumerus -42.1831 -34.7429 73.4107
lradius 88.9638
lwrist 7.38245
lhand -27.271 7.58016
lfingers 7.12502
lthumb -0.68179 37.5588
rfemur -6.41736 7.7264 29.2557
rtibia 26.5051
rfoot -15.3587 -2.79879
rtoes 1.5847
lfemur -30.0226 2.61513 -13.7151
ltibia 58.7272
lfoot -8.46901 2.90581
ltoes -20.4295
224
root 1.53002 18.5902 21.5496 1.18932 -2.36302 -3.44151
lowerback 3.4002 1.48754 2.66437
upperback 1.16118 2.07841 1.05305
thorax -0.658038 1.03965 -0.493001
lowerneck -12.7024 -2.92466 -3.0162
upperneck 17.5257 -3.98217 3.03399
head 7.61179 -1.81551 1.08354
rclavicle 9.72958e-015 9.16894e-015
rhumerus -25.4633 -8.2426 -79.1037
rradius 37.0649
rwrist -0.312752
rhand -16.8389 32.3147
rfingers 7.12502
rthumb 9.3908 2.54392
lclavicle 9.72958e-015 9.16894e-015
lhumerus -42.1989 -35.0568 73.4128
lradius 88.8563
lwrist 7.22701
lhand -27.5077 7.22552
lfingers 7.12502
lthumb -0.910455 37.2033
rfemur -5.66844 8.0241 30.0697
rtibia 25.7569
rfoot -15.2486 -2.61779
rtoes 3.61317
lfemur -30.633 2.49511 -12.8955
ltibia 56.5611
lfoot -9.12257 3.31305
ltoes -19.6706
225
root 1.51895 18.5955 21.6729 1.26026 -2.78685 -4.46762
lowerback 4.54092 1.62181 3.61061
upperback 0.626938 2.36345 1.30281
thorax -1.80896 1.15821 -0.824251
lowerneck -11.9551 -2.81238 -3.07013
upperneck 17.3394 -3.82448 2.99985
head 7.41316 -1.75588 1.10735
rclavicle -9.47624e-016 -5.01776e-015
rhumerus -25.5793 -7.20526 -79.3137
rradius 38.3227
rwrist -0.976828
rhand -16.782 32.1521
rfingers 7.12502
rthumb 9.44566 2.38377
lclavicle -9.47624e-016 -5.01776e-015
lhumerus -42.8986 -35.4616 73.7565
lradius 88.9981
lwrist 7.35319
lhand -27.5841 6.77464
lfingers 7.12502
lthumb -0.984186 36.7521
rfemur -4.90549 8.78402 31.3635
rtibia 24.9895
rfoot -14.6886 -2.54693
rtoes 5.26147
lfemur -31.0671 2.57062 -11.5713
ltibia 54.1731
lfoot -9.50617 3.61713
ltoes -16.8253
